<svg
    xmlns:dc="http://purl.org/dc/elements/1.1/"
    xmlns:cc="http://creativecommons.org/ns#"
    xmlns:rdf="http://www.w3.org/1999/02/22-rdf-syntax-ns#"
    xmlns:svg="http://www.w3.org/2000/svg"
    xmlns="http://www.w3.org/2000/svg"
    xmlns:sodipodi="http://sodipodi.sourceforge.net/DTD/sodipodi-0.dtd"
    xmlns:inkscape="http://www.inkscape.org/namespaces/inkscape"
    viewBox="0 0 102.79327 23.856668"
    version="1.1"
    id="logo"
    inkscape:version="0.92.2 5c3e80d, 2017-08-06"
    inkscape:export-filename="/Users/davood/Desktop/icon.png"
    inkscape:export-xdpi="300"
    inkscape:export-ydpi="300"
    sodipodi:docname="home.svg">
    <defs
        id="defs1748" />
    <sodipodi:namedview
        id="base"
        pagecolor="#ffffff"
        bordercolor="#666666"
        borderopacity="1.0"
        inkscape:pageopacity="0.0"
        inkscape:pageshadow="2"
        inkscape:zoom="1.4"
        inkscape:cx="184.68511"
        inkscape:cy="5.3663573"
        inkscape:document-units="mm"
        inkscape:current-layer="layer1"
        showgrid="false"
        fit-margin-top="0"
        fit-margin-left="0"
        fit-margin-right="0"
        fit-margin-bottom="0"
        inkscape:window-width="1680"
        inkscape:window-height="964"
        inkscape:window-x="0"
        inkscape:window-y="1"
        inkscape:window-maximized="1" />
    <metadata
        id="metadata1751">
        <rdf:RDF>
        <cc:Work
            rdf:about="">
            <dc:format>image/svg+xml</dc:format>
            <dc:type
            rdf:resource="http://purl.org/dc/dcmitype/StillImage" />
            <dc:title></dc:title>
        </cc:Work>
        </rdf:RDF>
    </metadata>
    <g
        inkscape:label="Layer 1"
        inkscape:groupmode="layer"
        id="layer1"
        transform="translate(-57.000284,-96.81609)">
        <text
        xml:space="preserve"
        style="font-style:normal;font-weight:normal;font-size:32.88079071px;line-height:1.25;font-family:sans-serif;letter-spacing:0px;word-spacing:0px;fill:#000000;fill-opacity:1;stroke:none;stroke-width:0.26458335"
        x="56.342026"
        y="119.38077"
        id="text2326"><tspan
            sodipodi:role="line"
            id="tspan2324"
            x="56.342026"
            y="119.38077"
            style="font-style:normal;font-variant:normal;font-weight:bold;font-stretch:normal;font-family:'Times New Roman';-inkscape-font-specification:'Times New Roman, Bold';letter-spacing:-1.32291663px;word-spacing:-0.34924999px;stroke-width:0.26458335"
            dx="0">IW</tspan></text>
        <path
        inkscape:connector-curvature="0"
        id="path1689"
        d="m 108.11128,120.17667 c -0.0751,-0.26688 -0.21823,-0.89075 -0.31798,-1.38638 -0.0998,-0.49564 -0.27138,-0.90116 -0.38137,-0.90116 -0.10999,0 -0.47144,0.55872 -0.8032,1.24159 -0.80663,1.6603 -1.44823,1.46563 -1.44823,-0.43942 0,-0.74619 -0.11269,-1.35672 -0.25039,-1.35672 -0.13772,0 -0.60562,0.43591 -1.0398,0.96866 -0.56237,0.69009 -0.89956,0.8982 -1.17244,0.72363 -0.32367,-0.20706 -0.3158,-0.44233 0.0508,-1.51829 0.23862,-0.7003 0.33823,-1.33234 0.22139,-1.40456 -0.11684,-0.0722 -0.66339,0.17512 -1.21454,0.54963 -1.73535,1.1792 -2.266272,0.72337 -1.13992,-0.97866 0.40928,-0.61846 0.67025,-1.19835 0.57994,-1.28865 -0.0903,-0.0903 -0.73847,0.0316 -1.440366,0.27065 -1.167518,0.39781 -1.290784,0.3968 -1.44763,-0.0119 -0.116152,-0.30269 0.156397,-0.70978 0.845076,-1.26225 0.55907,-0.4485 0.94683,-0.92821 0.86168,-1.06599 -0.08523,-0.13779 -0.771347,-0.25052 -1.524862,-0.25052 -1.715103,0 -1.828229,-0.54099 -0.260914,-1.24776 1.458093,-0.6575 1.409353,-1.13975 -0.13864,-1.37188 -0.969306,-0.14536 -1.247748,-0.30329 -1.247748,-0.7077 0,-0.4044 0.278442,-0.56233 1.247748,-0.70769 1.547993,-0.23214 1.596733,-0.71438 0.13864,-1.37189 -1.567315,-0.70675 -1.454189,-1.24775 0.260914,-1.24775 0.753515,0 1.439702,-0.11274 1.524862,-0.25052 0.085,-0.13779 -0.30261,-0.61749 -0.86168,-1.06599 -0.688679,-0.55248 -0.961228,-0.95956 -0.845076,-1.26224 0.156846,-0.40873 0.280112,-0.40975 1.44763,-0.0119 0.701896,0.23916 1.350076,0.36096 1.440366,0.27065 0.0903,-0.0903 -0.17066,-0.67019 -0.57994,-1.28865 -1.126352,-1.70203 -0.59543,-2.157859 1.13992,-0.97866 0.55115,0.37452 1.0977,0.62184 1.21454,0.54964 0.11684,-0.0722 0.0172,-0.70427 -0.22139,-1.404574 -0.36662,-1.075947 -0.37448,-1.311229 -0.0508,-1.518289 0.27288,-0.174573 0.61007,0.03354 1.17244,0.723632 0.43418,0.532759 0.90208,0.968661 1.0398,0.968661 0.1377,0 0.25039,-0.610529 0.25039,-1.35672 0,-1.905048 0.6416,-2.099721 1.44823,-0.439418 0.33176,0.682876 0.69321,1.241583 0.8032,1.241583 0.10999,0 0.28162,-0.405516 0.38137,-0.901157 0.31809,-1.580521 0.44628,-1.871618 0.82418,-1.871618 0.21429,0 0.50932,0.582509 0.70217,1.386383 0.18293,0.762521 0.42005,1.386392 0.52696,1.386392 0.1069,0 0.46581,-0.558707 0.79757,-1.241583 0.80664,-1.660303 1.44824,-1.46563 1.44824,0.439418 0,0.746191 0.0936,1.35672 0.20796,1.35673 0.11438,0 0.58228,-0.437124 1.03979,-0.971409 0.59359,-0.693206 0.94155,-0.900466 1.21487,-0.72365 0.32372,0.209417 0.31586,0.444937 -0.0508,1.521045 -0.23862,0.700304 -0.33825,1.332354 -0.2214,1.404574 0.11685,0.0722 0.67833,-0.18528 1.24774,-0.5722 0.56942,-0.38693 1.2203,-0.63251 1.44642,-0.54574 0.33906,0.13011 0.28132,0.37925 -0.32946,1.42147 -0.40733,0.69507 -0.66981,1.33452 -0.5833,1.42103 0.0866,0.0864 0.73158,-0.0383 1.4335,-0.27754 1.1436,-0.38967 1.2931,-0.39072 1.43913,-0.0105 0.105,0.27363 -0.19647,0.7209 -0.84783,1.25781 -0.55592,0.45822 -0.93985,0.94787 -0.85318,1.08811 0.0866,0.14024 0.7741,0.25497 1.5276,0.25497 1.71511,0 1.82823,0.541 0.26091,1.24775 -1.45808,0.65751 -1.40935,1.13975 0.13865,1.3719 0.96931,0.14536 1.24775,0.30329 1.24775,0.70769 0,0.4044 -0.27844,0.56234 -1.24775,0.70769 -1.5516,0.23267 -1.59618,0.71463 -0.1274,1.37696 1.57538,0.71039 1.39982,1.38988 -0.33159,1.28341 -0.70777,-0.0435 -1.3631,0.0442 -1.45631,0.19503 -0.0931,0.1508 0.2854,0.64911 0.84132,1.10733 0.65136,0.53689 0.95283,0.98417 0.84783,1.2578 -0.14603,0.38053 -0.29553,0.37947 -1.43913,-0.0105 -0.70192,-0.23916 -1.34698,-0.36406 -1.4335,-0.27754 -0.0864,0.0865 0.17597,0.72597 0.5833,1.42102 0.61078,1.04223 0.66852,1.29136 0.32946,1.42149 -0.22612,0.0867 -0.877,-0.15881 -1.44642,-0.54574 -0.56941,-0.38692 -1.13089,-0.64441 -1.24774,-0.57221 -0.11685,0.0723 -0.0172,0.70427 0.2214,1.40458 0.36667,1.07611 0.37452,1.31162 0.0508,1.52104 -0.27332,0.17681 -0.62128,-0.0305 -1.21487,-0.72365 -0.45751,-0.53428 -0.92541,-0.97142 -1.03979,-0.97141 -0.11437,1e-5 -0.20796,0.61054 -0.20796,1.35673 0,1.90505 -0.6416,2.09972 -1.44824,0.43942 -0.33176,-0.68287 -0.69067,-1.24158 -0.79757,-1.24158 -0.10691,0 -0.34403,0.62387 -0.52696,1.38639 -0.33334,1.38952 -0.94288,1.84409 -1.20837,0.90114 z m 1.95724,-3.77582 c 0.0691,-0.0691 -0.0911,-0.8978 -0.35585,-1.84157 -0.47991,-1.7104 -0.48258,-1.71341 -0.81804,-0.92605 l -0.33656,0.78993 -0.21333,-0.80038 -0.21333,-0.80039 -0.50881,0.66174 -0.50883,0.66175 -0.006,-0.80548 c -0.006,-0.7627 -0.0332,-0.78111 -0.51323,-0.3466 -0.71525,0.64728 -0.91818,0.57161 -0.70841,-0.26416 0.16647,-0.6633 0.13405,-0.69766 -0.39241,-0.41591 -0.81223,0.43468 -0.94845,0.38434 -0.62009,-0.22921 0.4245,-0.79319 0.36386,-0.8793 -0.47548,-0.67518 -0.74174,0.18039 -0.7493,0.17049 -0.27728,-0.36314 0.632,-0.71453 0.61541,-0.99953 -0.046,-0.78961 -0.29218,0.0927 -0.60592,0.0476 -0.69721,-0.1 -0.0913,-0.14774 0.0854,-0.34838 0.39258,-0.44588 0.72054,-0.22869 0.72323,-0.69448 0.005,-0.69448 -0.30501,0 -0.55456,-0.12477 -0.55456,-0.27728 0,-0.15249 0.24955,-0.27726 0.55456,-0.27726 0.305,0 0.55456,-0.0962 0.55456,-0.21391 0,-0.255 -3.26517,-1.14224 -3.46569,-0.94172 -0.0764,0.0764 -0.13893,0.71979 -0.13893,1.42971 0,3.59625 2.64481,6.84984 6.30376,7.7548 0.97989,0.24236 2.76121,0.18979 3.04073,-0.0897 z m 2.27845,-0.71835 c 2.33098,-1.18916 4.1819,-4.26517 4.1819,-6.94979 0,-1.36309 -0.62632,-3.36277 -1.38852,-4.43319 l -0.62304,-0.87498 -1.21245,1.18992 c -0.66683,0.65445 -1.21244,1.2714 -1.21244,1.371 0,0.0996 0.34313,0.11787 0.76252,0.0405 0.74054,-0.13648 0.74854,-0.12476 0.27728,0.40688 -0.63207,0.71304 -0.61542,0.99834 0.046,0.78842 0.29217,-0.0927 0.60593,-0.0476 0.69723,0.1 0.0912,0.14772 -0.0854,0.34836 -0.39259,0.44588 -0.72053,0.2287 -0.72323,0.69448 -0.005,0.69448 0.30502,0 0.55456,0.12476 0.55456,0.27727 0,0.15251 -0.24954,0.27727 -0.55456,0.27727 -0.71921,0 -0.7165,0.46579 0.005,0.69448 0.30721,0.0975 0.48389,0.29815 0.39259,0.44589 -0.0913,0.14772 -0.40506,0.19272 -0.69723,0.1 -0.66141,-0.20992 -0.67804,0.0754 -0.046,0.78843 0.47126,0.53163 0.46326,0.54335 -0.27728,0.40688 -0.85405,-0.1574 -0.87989,-0.12302 -0.47549,0.63263 0.32842,0.61364 0.19216,0.66391 -0.62062,0.22891 -0.52331,-0.28007 -0.56212,-0.24307 -0.43613,0.41592 0.16263,0.85077 0.0346,0.89427 -0.70099,0.23811 -0.52182,-0.46552 -0.53732,-0.4627 -0.38098,0.0692 0.0896,0.30501 0.30818,1.14724 0.48569,1.87163 0.17749,0.72439 0.37527,1.31707 0.4395,1.31707 0.0643,0 0.5957,-0.24434 1.18105,-0.54297 z m -3.40711,-3.9628 c -0.0919,-0.34313 -0.1689,-0.75737 -0.17099,-0.92054 -0.008,-0.53877 -1.51539,-1.97468 -2.26555,-2.15653 -0.40522,-0.0982 -0.93551,-0.25484 -1.17843,-0.34806 -0.59692,-0.22906 -0.58664,0.74833 0.0213,2.02958 0.53931,1.13646 1.83308,2.01691 2.96595,2.01839 0.68915,8.4e-4 0.77261,-0.082 0.62766,-0.62284 z m 2.1207,-0.31398 c 1.10154,-1.02087 1.4672,-2.58355 0.91423,-3.907 l -0.44913,-1.07493 -0.93699,0.90815 c -0.53449,0.51807 -0.99058,1.27341 -1.06177,1.75843 -0.13574,0.92481 0.29009,2.97593 0.61781,2.97593 0.11169,0 0.52382,-0.29726 0.91585,-0.66058 z m -2.15683,-2.94403 c -0.13415,-0.21706 -0.29365,-0.23317 -0.47851,-0.0483 -0.1525,0.15251 -0.18673,0.4238 -0.076,0.60287 0.13416,0.21708 0.29366,0.23319 0.47852,0.0483 0.1525,-0.15251 0.18671,-0.42381 0.076,-0.60288 z m 1.1091,-1.70427 c 0.80858,-0.7982 0.81679,-0.83238 0.2936,-1.22211 -1.20221,-0.89559 -3.77759,-0.2906 -4.68988,1.1017 -0.45225,0.69023 -0.44657,0.70258 0.44407,0.96573 1.43228,0.42317 3.00882,0.0859 3.95221,-0.84532 z m -5.84915,-0.27819 c -0.52768,-0.59547 -0.52744,-0.5959 0.23428,-0.41064 0.83936,0.20412 0.9,0.11802 0.47549,-0.67518 -0.32835,-0.61355 -0.19214,-0.6639 0.6201,-0.22921 0.52645,0.28176 0.55888,0.24737 0.39241,-0.41591 -0.20976,-0.83577 -0.008,-0.91143 0.70841,-0.26415 0.48004,0.43443 0.50784,0.41596 0.52161,-0.3466 l 0.0146,-0.8055 0.44857,0.64404 0.44857,0.64403 0.33358,-0.78268 0.33358,-0.78266 0.21334,0.80039 0.21333,0.80037 0.50883,-0.66175 0.50883,-0.66174 0.006,0.8055 c 0.006,0.76269 0.0332,0.78109 0.51323,0.3466 0.70078,-0.6342 0.82309,-0.57884 0.67097,0.30362 -0.12521,0.7263 -0.0684,0.70079 1.19591,-0.53722 1.54967,-1.51744 1.48379,-1.74602 -0.78833,-2.73578 -2.82053,-1.22864 -6.28309,-0.62137 -8.46652,1.4849 -1.12125,1.08162 -2.07637,2.57469 -1.9293,3.01592 0.11127,0.33378 1.8771,0.97862 2.82241,1.03065 0.51942,0.0286 0.51942,0.0192 0,-0.567 z"
        style="fill:#1a1a1a;stroke-width:0.99999988" />
        <text
        id="text2330"
        y="119.62962"
        x="117.96833"
        style="font-style:normal;font-weight:normal;font-size:32.88079071px;line-height:1.25;font-family:sans-serif;letter-spacing:0px;word-spacing:0px;fill:#000000;fill-opacity:1;stroke:none;stroke-width:0.26458335"
        xml:space="preserve"><tspan
            style="font-style:normal;font-variant:normal;font-weight:bold;font-stretch:normal;font-family:'Times New Roman';-inkscape-font-specification:'Times New Roman,  Bold';stroke-width:0.26458335"
            y="119.62962"
            x="117.96833"
            id="tspan2328"
            sodipodi:role="line">R</tspan></text>
        <text
        xml:space="preserve"
        style="font-style:normal;font-weight:normal;font-size:17.14809799px;line-height:1.25;font-family:sans-serif;letter-spacing:0px;word-spacing:0px;fill:#000000;fill-opacity:1;stroke:none;stroke-width:0.26458332"
        x="138.50078"
        y="108.86576"
        id="text2525"><tspan
            sodipodi:role="line"
            id="tspan2523"
            x="138.50078"
            y="108.86576"
            style="font-style:normal;font-variant:normal;font-weight:bold;font-stretch:normal;font-family:'Times New Roman';-inkscape-font-specification:'Times New Roman,  Bold';stroke-width:0.26458332">'19</tspan></text>
    </g>
</svg>